<?xml version="1.0" encoding="UTF-8"?>
<!-- Generated by Pixelmator Pro 3.6.17 -->
<svg width="800" height="800" viewBox="0 0 800 800" xmlns="http://www.w3.org/2000/svg">
    <path id="Trac" fill="#fbba22" stroke="none" d="M 310.15625 377.890625 C 310.15625 444.207947 363.917053 497.968781 430.234375 497.968781 C 496.551697 497.968781 550.3125 444.207947 550.3125 377.890625 C 550.3125 311.573303 496.551697 257.8125 430.234375 257.8125 C 363.917053 257.8125 310.15625 311.573303 310.15625 377.890625 Z"/>
    <path id="path1" fill="#ffffff" stroke="none" d="M 396.875 425.9375 C 371.015625 425.9375 348.046875 438.359344 333.125 457.8125 C 323.671875 444.843781 308.671875 436.328125 291.71875 436.328125 C 266.09375 436.328125 244.84375 455.625 240.703125 480.859375 L 220.85939 480.859375 C 190.625 480.859375 166.09375 506.171906 166.09375 537.421875 C 166.09375 568.671875 190.625 593.984375 220.85939 593.984375 L 396.875 593.984375 C 441.796875 593.984375 478.28125 556.328125 478.28125 509.921875 C 478.28125 463.515625 441.796875 425.9375 396.875 425.9375 Z"/>
    <path id="path2" fill="#211f1e" stroke="none" d="M 548.4375 271.640625 C 551.484375 271.640625 554.609375 270.46875 556.953125 268.125 L 591.484375 233.59375 C 596.171875 228.90625 596.171875 221.328125 591.484375 216.640625 C 586.796875 211.953125 579.21875 211.953125 574.53125 216.640625 L 540 251.171875 C 535.3125 255.859375 535.3125 263.4375 540 268.125 C 542.34375 270.46875 545.390625 271.640625 548.4375 271.640625 Z M 556.953125 487.65625 C 552.265625 482.96875 544.6875 482.96875 540 487.65625 C 535.3125 492.34375 535.3125 499.921906 540 504.609406 L 574.53125 539.140625 C 576.875 541.484375 579.921875 542.65625 583.046875 542.65625 C 586.09375 542.65625 589.21875 541.484375 591.5625 539.140625 C 596.25 534.453125 596.25 526.875 591.5625 522.1875 L 556.953125 487.65625 Z M 303.4375 268.125 C 305.78125 270.46875 308.828125 271.640625 311.953125 271.640625 C 315 271.640625 318.125 270.46875 320.46875 268.125 C 325.15625 263.4375 325.15625 255.859375 320.46875 251.171875 L 285.9375 216.640625 C 281.25 211.953125 273.671875 211.953125 268.984375 216.640625 C 264.296875 221.328125 264.296875 228.90625 268.984375 233.59375 L 303.4375 268.125 Z M 430.234375 222.65625 C 436.875 222.65625 442.265594 217.265625 442.265594 210.625 L 442.265594 161.71875 C 442.265594 155.078125 436.875 149.6875 430.234375 149.6875 C 423.59375 149.6875 418.203125 155.078125 418.203125 161.71875 L 418.203125 210.625 C 418.203125 217.265625 423.59375 222.65625 430.234375 222.65625 Z M 214.140625 389.921875 L 263.046875 389.921875 C 269.6875 389.921875 275.078125 384.53125 275.078125 377.890625 C 275.078125 371.25 269.6875 365.859375 263.046875 365.859375 L 214.140625 365.859375 C 207.5 365.859375 202.10939 371.25 202.10939 377.890625 C 202.10939 384.53125 207.5 389.921875 214.140625 389.921875 Z M 646.328125 365.9375 L 597.421875 365.9375 C 590.78125 365.9375 585.390625 371.328125 585.390625 377.96875 C 585.390625 384.609375 590.78125 390 597.421875 390 L 646.328125 390 C 652.96875 390 658.359375 384.609375 658.359375 377.96875 C 658.359375 371.25 652.96875 365.9375 646.328125 365.9375 Z"/>
    <path id="path3" fill="#211f1e" stroke="none" d="M 562.265625 377.890625 C 562.265625 305.078125 503.046906 245.859375 430.234375 245.859375 C 357.421875 245.859375 298.203125 305.078125 298.203125 377.890625 C 298.203125 395 301.484375 411.328125 307.421875 426.328125 C 302.34375 425 297.109375 424.296844 291.796875 424.296844 C 263.984375 424.296844 239.921875 442.500031 231.406265 468.828094 L 221.015625 468.828094 C 184.21875 468.828094 154.21875 499.609375 154.21875 537.421875 C 154.21875 575.234375 184.21875 606.015625 221.015625 606.015625 L 396.875 606.015625 C 448.359406 606.015625 490.312469 562.890625 490.312469 510 C 490.312469 505.234375 489.84375 500.546875 489.21875 496.015656 C 532.421875 474.296844 562.265625 429.53125 562.265625 377.890625 Z M 396.875 582.03125 L 220.85939 582.03125 C 197.265625 582.03125 178.046875 562.03125 178.046875 537.5 C 178.046875 512.890625 197.265625 492.96875 220.85939 492.96875 L 240.703125 492.96875 C 246.5625 492.96875 251.640625 488.671875 252.57811 482.890594 C 255.859375 462.890625 272.265625 448.4375 291.71875 448.4375 C 304.21875 448.4375 315.78125 454.453125 323.4375 464.921844 C 325.625 467.96875 329.21875 469.843781 332.96875 469.843781 C 336.796875 469.921875 340.3125 468.125 342.65625 465.156281 C 355.9375 447.890625 375.703125 437.968719 396.875 437.968719 C 435.15625 437.968719 466.25 470.3125 466.25 510 C 466.25 549.6875 435.078156 582.03125 396.875 582.03125 Z M 482.734406 472.265625 C 468.437469 437.968719 435.3125 413.90625 396.875 413.90625 C 375.390625 413.90625 355.078125 421.406281 338.671875 434.921875 C 328.28125 418.359375 322.1875 398.828125 322.1875 377.890625 C 322.1875 318.28125 370.625 269.84375 430.234375 269.84375 C 489.84375 269.84375 538.28125 318.28125 538.28125 377.890625 C 538.28125 418.437469 515.78125 453.75 482.734406 472.265625 Z"/>
</svg>
