<?xml version="1.0" encoding="UTF-8"?>
<!-- Generated by Pixelmator Pro 3.6.17 -->
<svg width="24" height="24" viewBox="0 0 24 24" xmlns="http://www.w3.org/2000/svg">
    <path id="secondary" fill="none" stroke="#2ca9bc" stroke-width="2" stroke-linecap="round" stroke-linejoin="round" d="M 6 17 L 6 19 M 10 17 L 10 21 M 14 17 L 14 19 M 18 17 L 18 21"/>
    <path id="primary" fill="none" stroke="#000000" stroke-width="2" stroke-linecap="round" stroke-linejoin="round" d="M 21 9 C 21 11.209139 19.209139 13 17 13 L 6 13 C 4.789887 13.009062 3.69282 12.290178 3.218051 11.177052 C 2.743283 10.063926 2.98379 8.774544 3.827929 7.907431 C 4.672068 7.040318 5.95453 6.765285 7.08 7.209999 C 7.410908 5.214613 8.911404 3.615135 10.881617 3.157608 C 12.85183 2.700081 14.903629 3.474636 16.08 5.119999 C 16.381105 5.045149 16.689768 5.004889 17 5 C 19.209139 5 21 6.790861 21 9 Z"/>
</svg>
