<?xml version="1.0" encoding="UTF-8"?>
<!-- Generated by Pixelmator Pro 3.6.17 -->
<svg width="24" height="24" viewBox="0 0 24 24" xmlns="http://www.w3.org/2000/svg">
    <path id="secondary" fill="none" stroke="#2ca9bc" stroke-width="2" stroke-linecap="round" stroke-linejoin="round" d="M 9 15.92 L 11.57 16.77 L 11.57 21 L 15 15.08 L 13.29 14.23 L 13.29 10 L 9 15.92 Z"/>
    <path id="primary" fill="none" stroke="#000000" stroke-width="2" stroke-linecap="round" stroke-linejoin="round" d="M 18 12.87 C 19.944534 12.361799 21.210016 10.489594 20.956673 8.495778 C 20.703329 6.501963 19.009838 5.005739 17 5 C 16.686419 5.004126 16.374357 5.044392 16.07 5.119999 C 14.893629 3.474636 12.84183 2.700081 10.871617 3.157608 C 8.901403 3.615135 7.400908 5.214613 7.07 7.209999 C 5.943419 6.764952 4.659726 7.041069 3.81577 7.909973 C 2.971815 8.778875 2.733201 10.070065 3.210872 11.183208 C 3.688543 12.29635 4.788767 13.013018 6 13"/>
</svg>
