<?xml version="1.0" encoding="UTF-8"?>
<!-- Generated by Pixelmator Pro 3.6.17 -->
<svg width="1010" height="1010" viewBox="0 0 1010 1010" xmlns="http://www.w3.org/2000/svg">
    <g id="sun-sun">
        <g id="sun-fill">
            <path id="Trac" fill="#ffca72" stroke="none" d="M 826.118225 505 C 826.118225 682.335022 682.335083 826.100586 505.03421 826.100586 C 327.741699 826.100586 183.916 682.335022 183.916 505 C 183.916 327.681641 327.741699 183.881836 505.03421 183.881836 C 682.335022 183.881836 826.118225 327.681641 826.118225 505 Z"/>
        </g>
        <g id="sun-line">
            <g id="Associer">
                <path id="path1" fill="#37474f" stroke="none" d="M 505.03421 833.055725 C 324.119598 833.055725 176.944305 685.888611 176.944305 505 C 176.944305 324.07666 324.119598 176.909668 505.03421 176.909668 C 685.923828 176.909668 833.073181 324.07666 833.073181 505 C 833.073181 685.888672 685.923828 833.055725 505.03421 833.055725 L 505.03421 833.055725 Z M 505.03421 212.978516 C 344.016113 212.978516 213.012695 343.990234 213.012695 505 C 213.012695 665.992188 344.016113 796.987305 505.03421 796.987305 C 666.027283 796.987305 797.003906 665.992188 797.003906 505 C 797.003906 343.990234 666.027283 212.978516 505.03421 212.978516 L 505.03421 212.978516 Z"/>
            </g>
            <g id="g1">
                <g id="g2">
                    <path id="path2" fill="#37474f" stroke="none" d="M 1010 523.04303 L 914.598572 523.04303 L 914.598572 486.957031 L 1010 486.957031 L 1010 523.04303 Z"/>
                </g>
                <g id="g3">
                    <path id="path3" fill="#37474f" stroke="none" d="M 95.3936 523.04303 L -0 523.04303 L -0 486.957031 L 95.3936 486.957031 L 95.3936 523.04303 Z"/>
                </g>
                <g id="g4">
                    <path id="path4" fill="#37474f" stroke="none" d="M 524.999023 95.350586 L 488.938507 95.350586 L 488.938507 0 L 524.999023 0 L 524.999023 95.350586 Z"/>
                </g>
                <g id="g5">
                    <path id="path5" fill="#37474f" stroke="none" d="M 204.935501 244.881287 L 138.145493 178.032227 L 163.670898 152.523438 L 230.460907 219.372986 L 204.935501 244.881287 Z"/>
                </g>
                <g id="g6">
                    <path id="path6" fill="#37474f" stroke="none" d="M 805.116211 244.881287 L 779.607422 219.372986 L 846.371094 152.523438 L 871.88092 178.032227 L 805.116211 244.881287 Z"/>
                </g>
                <g id="g7">
                    <path id="path7" fill="#37474f" stroke="none" d="M 524.999023 1010 L 488.938507 1010 L 488.938507 914.615173 L 524.999023 914.615173 L 524.999023 1010 Z"/>
                </g>
                <g id="g8">
                    <path id="path8" fill="#37474f" stroke="none" d="M 163.670898 857.458984 L 138.145493 831.951172 L 204.935501 765.101624 L 230.460907 790.609375 L 163.670898 857.458984 Z"/>
                </g>
                <g id="g9">
                    <path id="path9" fill="#37474f" stroke="none" d="M 846.371094 857.458984 L 779.607422 790.609375 L 805.116211 765.101624 L 871.88092 831.951172 L 846.371094 857.458984 Z"/>
                </g>
            </g>
        </g>
    </g>
</svg>
